#!OML:ASF H:\Dans Jumps\Project 1\Capture day 1\Session 1\subject.ASF
:FULLY-SPECIFIED
:DEGREES
471
root 0.43922 17.6166 6.79307 8.60383 -1.42049 -1.54838
lowerback -2.90871 -0.229732 -0.0257332
upperback 1.19204 -0.339872 1.26352
thorax 2.8631 -0.182104 1.29457
lowerneck -8.70097 -5.97131 -5.38998
upperneck 17.1344 -7.77623 2.48718
head 6.98029 -3.87809 1.00288
rclavicle -2.11209e-015 5.06901e-015
rhumerus -28.1171 -17.8864 -79.1452
rradius 22.7792
rwrist 37.644
rhand -19.619 -26.5264
rfingers 7.12502
rthumb 6.70764 -56.4002
lclavicle -2.11209e-015 5.06901e-015
lhumerus -31.009 1.57492 88.5983
lradius 18.9037
lwrist 5.50744
lhand -25.7177 -4.47677
lfingers 7.12502
lthumb 0.818442 25.5014
rfemur -14.6639 -2.09954 20.194
rtibia 23.5953
rfoot -15.9234 0.615566
rtoes 12.7606
lfemur -13.1278 9.16336 -18.3273
ltibia 20.877
lfoot -12.6027 6.42521
ltoes -0.688772
472
root 0.439637 17.6166 6.79304 8.60601 -1.43503 -1.55091
lowerback -2.90554 -0.269653 -0.0525754
upperback 1.16597 -0.391601 1.25845
thorax 2.8358 -0.208178 1.30167
lowerneck -8.50101 -6.26907 -5.53483
upperneck 16.4716 -8.17964 2.6308
head 6.76123 -4.07232 1.04853
rclavicle -9.56651e-015 1.21259e-014
rhumerus -28.1232 -17.9903 -79.1412
rradius 22.5797
rwrist 37.9352
rhand -19.4888 -26.504
rfingers 7.12502
rthumb 6.83336 -56.3737
lclavicle -9.56651e-015 1.21259e-014
lhumerus -31.0726 1.6399 88.5866
lradius 18.8503
lwrist 5.41884
lhand -25.6592 -4.42228
lfingers 7.12502
lthumb 0.874914 25.5557
rfemur -14.6691 -2.10263 20.1943
rtibia 23.5949
rfoot -15.9206 0.637853
rtoes 12.7674
lfemur -13.1278 9.16853 -18.3273
ltibia 20.8761
lfoot -12.5997 6.44222
ltoes -0.734849
473
root 0.439994 17.6166 6.79314 8.60487 -1.45123 -1.56064
lowerback -2.89609 -0.308999 -0.0730367
upperback 1.13648 -0.442818 1.25571
thorax 2.80144 -0.233862 1.30767
lowerneck -8.29245 -6.56415 -5.66605
upperneck 15.8207 -8.57959 2.76726
head 6.54582 -4.26548 1.09138
rclavicle 2.83268e-015 9.93923e-017
rhumerus -28.1306 -18.085 -79.1389
rradius 22.3908
rwrist 38.208
rhand -19.3649 -26.4736
rfingers 7.12502
rthumb 6.95289 -56.3394
lclavicle 2.83268e-015 9.93923e-017
lhumerus -31.1345 1.69169 88.5761
lradius 18.8109
lwrist 5.36288
lhand -25.5983 -4.33615
lfingers 7.12502
lthumb 0.933731 25.6416
rfemur -14.6691 -2.10324 20.2025
rtibia 23.5928
rfoot -15.9182 0.657455
rtoes 12.7724
lfemur -13.1248 9.16572 -18.3181
ltibia 20.8792
lfoot -12.5965 6.47071
ltoes -0.787867
474
root 0.440372 17.6163 6.79337 8.60132 -1.46863 -1.57409
lowerback -2.88267 -0.348556 -0.090261
upperback 1.10409 -0.494454 1.25485
thorax 2.76189 -0.259684 1.31383
lowerneck -8.07951 -6.85169 -5.7748
upperneck 15.1824 -8.96927 2.88823
head 6.33368 -4.45435 1.12795
rclavicle -6.31141e-015 -7.95139e-016
rhumerus -28.1369 -18.1738 -79.1379
rradius 22.2116
rwrist 38.4655
rhand -19.2531 -26.4327
rfingers 7.12502
rthumb 7.06079 -56.295
lclavicle -6.31141e-015 -7.95139e-016
lhumerus -31.1983 1.7391 88.5648
lradius 18.7907
lwrist 5.32768
lhand -25.5137 -4.15728
lfingers 7.12502
lthumb 1.01538 25.82
rfemur -14.6643 -2.10452 20.2148
rtibia 23.5872
rfoot -15.9149 0.675533
rtoes 12.7657
lfemur -13.1212 9.15768 -18.3045
ltibia 20.8886
lfoot -12.5948 6.50896
ltoes -0.847976
475
root 0.440707 17.616 6.79386 8.59417 -1.4891 -1.59276
lowerback -2.86855 -0.387096 -0.10259
upperback 1.0711 -0.54497 1.25566
thorax 2.72132 -0.284866 1.31907
lowerneck -7.85703 -7.13121 -5.88074
upperneck 14.5553 -9.34922 3.01612
head 6.12516 -4.63865 1.16854
rclavicle -1.15295e-014 1.26228e-014
rhumerus -28.1419 -18.2506 -79.1419
rradius 22.0478
rwrist 38.7001
rhand -19.1515 -26.3885
rfingers 7.12502
rthumb 7.15886 -56.2474
lclavicle -1.15295e-014 1.26228e-014
lhumerus -31.2613 1.78772 88.5497
lradius 18.7833
lwrist 5.29979
lhand -25.4339 -3.95365
lfingers 7.12502
lthumb 1.09249 26.0233
rfemur -14.6533 -2.10205 20.2329
rtibia 23.5786
rfoot -15.9119 0.689277
rtoes 12.7448
lfemur -13.1143 9.14553 -18.2842
ltibia 20.9032
lfoot -12.5949 6.55782
ltoes -0.909728
476
root 0.440966 17.6156 6.79441 8.58828 -1.51213 -1.62394
lowerback -2.85907 -0.42409 -0.103065
upperback 1.03827 -0.594028 1.26046
thorax 2.68344 -0.309159 1.32184
lowerneck -7.64287 -7.40363 -5.97918
upperneck 13.9531 -9.71931 3.14152
head 5.92682 -4.81846 1.2085
rclavicle 1.963e-015 -1.19271e-015
rhumerus -28.1435 -18.3093 -79.1539
rradius 21.903
rwrist 38.9058
rhand -19.0664 -26.3469
rfingers 7.12502
rthumb 7.24105 -56.203
lclavicle 1.963e-015 -1.19271e-015
lhumerus -31.3216 1.84121 88.5308
lradius 18.7829
lwrist 5.26722
lhand -25.395 -3.79267
lfingers 7.12502
lthumb 1.13008 26.1841
rfemur -14.6426 -2.0918 20.2655
rtibia 23.5679
rfoot -15.9096 0.695054
rtoes 12.7067
lfemur -13.1095 9.13353 -18.25
ltibia 20.9211
lfoot -12.5946 6.61315
ltoes -0.973854
477
root 0.441214 17.6151 6.79518 8.58033 -1.54022 -1.65233
lowerback -2.85143 -0.459963 -0.107492
upperback 1.00535 -0.641445 1.26529
thorax 2.64651 -0.332704 1.32699
lowerneck -7.42221 -7.66736 -6.07513
upperneck 13.3641 -10.0781 3.27003
head 5.73269 -4.99314 1.25116
rclavicle -5.889e-015 7.05686e-015
rhumerus -28.1437 -18.342 -79.1751
rradius 21.7791
rwrist 39.0799
rhand -18.9876 -26.3143
rfingers 7.12502
rthumb 7.3171 -56.1678
lclavicle -5.889e-015 7.05686e-015
lhumerus -31.3825 1.90197 88.5068
lradius 18.773
lwrist 5.19853
lhand -25.4029 -3.77411
lfingers 7.12502
lthumb 1.12244 26.2027
rfemur -14.629 -2.08113 20.2947
rtibia 23.5564
rfoot -15.9086 0.701958
rtoes 12.6577
lfemur -13.1011 9.1227 -18.2192
ltibia 20.9397
lfoot -12.5942 6.67355
ltoes -1.03724
478
root 0.441449 17.6147 6.79622 8.57089 -1.57439 -1.67882
lowerback -2.8493 -0.494126 -0.114973
upperback 0.974478 -0.686512 1.26997
thorax 2.6148 -0.355148 1.3338
lowerneck -7.21234 -7.92139 -6.16583
upperneck 12.8008 -10.4238 3.39919
head 5.54916 -5.16151 1.29446
rclavicle 1.72694e-015 9.24349e-015
rhumerus -28.1396 -18.3408 -79.2102
rradius 21.6805
rwrist 39.2129
rhand -18.9169 -26.2967
rfingers 7.12502
rthumb 7.38534 -56.1478
lclavicle 1.72694e-015 9.24349e-015
lhumerus -31.4337 1.9616 88.48
lradius 18.7505
lwrist 5.10752
lhand -25.3818 -3.79861
lfingers 7.12502
lthumb 1.14278 26.1781
rfemur -14.6138 -2.06971 20.3213
rtibia 23.5452
rfoot -15.9092 0.712859
rtoes 12.6137
lfemur -13.088 9.117 -18.1908
ltibia 20.9563
lfoot -12.5919 6.73495
ltoes -1.10309
479
root 0.441605 17.6143 6.79769 8.55875 -1.61535 -1.70203
lowerback -2.85425 -0.526123 -0.127465
upperback 0.947562 -0.728554 1.27363
thorax 2.59113 -0.376191 1.34248
lowerneck -7.0184 -8.16596 -6.24862
upperneck 12.268 -10.7568 3.52918
head 5.37818 -5.32358 1.33754
rclavicle 9.56651e-016 -1.86858e-014
rhumerus -28.1282 -18.3085 -79.2593
rradius 21.6043
rwrist 39.305
rhand -18.8575 -26.285
rfingers 7.12502
rthumb 7.44272 -56.1341
lclavicle 9.56651e-016 -1.86858e-014
lhumerus -31.4738 2.02197 88.4505
lradius 18.7277
lwrist 5.00655
lhand -25.3763 -3.87678
lfingers 7.12502
lthumb 1.14814 26.0999
rfemur -14.5956 -2.05597 20.3438
rtibia 23.5353
rfoot -15.9119 0.728567
rtoes 12.5818
lfemur -13.0665 9.11594 -18.1655
ltibia 20.9676
lfoot -12.5895 6.79541
ltoes -1.15394
